<svg width="15" height="16" viewBox="0 0 15 16" fill="none" xmlns="http://www.w3.org/2000/svg">
<path d="M6.39333 12.9649L7.33843 13.1927L10.5284 6.95935L10.9009 6.23156H10.0833H8.38333V2.69823L7.44144 2.46429L4.14144 8.69762L3.75288 9.43156H4.58333H6.39333V12.9649ZM7.33333 14.6649C6.38396 14.6649 5.49835 14.4851 4.67143 14.1283C3.83481 13.7673 3.11204 13.2798 2.49855 12.6663C1.88507 12.0529 1.39759 11.3301 1.03658 10.4935C0.679761 9.66654 0.5 8.78093 0.5 7.83156C0.5 6.88219 0.679761 5.99658 1.03658 5.16966C1.39759 4.33304 1.88507 3.61027 2.49855 2.99678C3.11204 2.3833 3.83481 1.89582 4.67143 1.53481C5.49835 1.17799 6.38396 0.99823 7.33333 0.99823C8.2827 0.99823 9.16831 1.17799 9.99524 1.53481C10.8319 1.89582 11.5546 2.3833 12.1681 2.99678C12.7816 3.61027 13.2691 4.33304 13.6301 5.16966C13.9869 5.99658 14.1667 6.88219 14.1667 7.83156C14.1667 8.78093 13.9869 9.66654 13.6301 10.4935C13.2691 11.3301 12.7816 12.0529 12.1681 12.6663C11.5546 13.2798 10.8319 13.7673 9.99524 14.1283C9.16831 14.4851 8.2827 14.6649 7.33333 14.6649Z" fill="#894189" stroke="black"/>
</svg>
